<svg width="220" height="160" viewBox="0 0 220 160" fill="none" xmlns="http://www.w3.org/2000/svg">
  <rect width="220" height="160" rx="24" fill="#F5F7FF"/>
  <ellipse cx="110" cy="120" rx="70" ry="24" fill="#E0E7FF"/>
  <g>
    <circle cx="110" cy="80" r="38" fill="#23223a"/>
    <ellipse cx="110" cy="80" rx="32" ry="36" fill="#4F46E5"/>
    <ellipse cx="110" cy="90" rx="24" ry="18" fill="#fff"/>
    <rect x="90" y="60" width="40" height="32" rx="12" fill="#fff"/>
    <rect x="100" y="70" width="20" height="12" rx="6" fill="#23223a"/>
    <rect x="104" y="74" width="12" height="4" rx="2" fill="#fff"/>
    <rect x="104" y="82" width="12" height="4" rx="2" fill="#fff"/>
    <rect x="98" y="92" width="24" height="6" rx="3" fill="#23223a"/>
    <rect x="104" y="98" width="12" height="4" rx="2" fill="#fff"/>
    <rect x="104" y="106" width="12" height="4" rx="2" fill="#fff"/>
    <rect x="90" y="112" width="40" height="8" rx="4" fill="#23223a"/>
  </g>
  <rect x="70" y="40" width="80" height="80" rx="16" stroke="#4F46E5" stroke-width="2" fill="none"/>
  <g>
    <circle cx="40" cy="120" r="8" fill="#4F46E5"/>
    <rect x="36" y="116" width="8" height="16" rx="4" fill="#4F46E5"/>
    <circle cx="180" cy="120" r="8" fill="#4F46E5"/>
    <rect x="176" y="116" width="8" height="16" rx="4" fill="#4F46E5"/>
  </g>
</svg> 