<svg xmlns="http://www.w3.org/2000/svg" xmlns:xlink="http://www.w3.org/1999/xlink" xmlns:inkscape="http://www.inkscape.org/namespaces/inkscape" version="1.1" width="375" height="375" viewBox="0 0 375 375">
<defs>
<clipPath id="clip_0">
<path transform="matrix(.24,0,0,.24,0,0)" d="M0 0H1562.5V1562.5H0Z" clip-rule="evenodd"/>
</clipPath>
<clipPath id="clip_1">
<path transform="matrix(.24,0,0,.24,0,0)" d="M0 0H1562.5V1562.5H0Z" clip-rule="evenodd"/>
</clipPath>
<clipPath id="clip_2">
<path transform="matrix(.24,0,0,.24,0,0)" d="M42.656087 286.03086H1520.7811V1336.0309H42.656087Z" clip-rule="evenodd"/>
</clipPath>
</defs>
<g clip-path="url(#clip_0)">
<path transform="matrix(.75,0,0,.75,0,0)" d="M0 0H500V500H0Z" fill="#ffffff"/>
</g>
<g clip-path="url(#clip_1)">
<path transform="matrix(.75,0,0,.75,0,0)" d="M0 0H500V500H0Z" fill="#ffffff"/>
</g>
<g clip-path="url(#clip_2)">
<path transform="matrix(1.3125347,0,0,1.3125347,20.475232,79.38618)" d="M214.5311 267.6501C214.5311 267.6501 209.0528 315.0849 195.7485 338.82398 200.96591 344.82398 201.7485 362.04139 165.7485 354.21528 151.1398 350.82398 148.35721 346.12828 149.0963 334.6501 149.8354 323.17179 147.3137 299.2367 146.2267 295.3129 145.1398 291.3892 214.5311 267.6501 214.5311 267.6501ZM56.4098 267.6501C56.4098 267.6501 61.8881 315.0849 75.1924 338.82398 69.975 344.82398 69.1924 362.04139 105.1924 354.21528 119.8011 350.82398 122.583698 346.12828 121.8446 334.6501 121.1055 323.17179 123.6272 299.2367 124.714199 295.3129 125.8011 291.3892 56.4098 267.6501 56.4098 267.6501ZM25.9365 293.1259C37.9657 295.2865 46.887399 280.32798 54.2535 264.72209 146.2268 235.56308 224.19739 180.43787 224.11981 180.17208 232.33312 160.15218 245.65341 138.47608 252.48761 116.606578 262.2702 85.30228 256.7485 63.432676 235.22672 58.345678 213.70493 53.25868 197.31372 111.12828 197.31372 111.12828 182.95342 142.17879 165.88512 153.42618 157.90493 157.19709 156.40402 157.70308 154.89102 158.27709 153.36353 158.94329 113.71783 176.23659 49.931428 156.86688 49.931428 156.86688 35.31363 173.17179 18.458127 203.56069 8.675526 234.86499-1.1069 266.1695 2.2267 288.8675 25.9365 293.1259Z"/>
<path transform="matrix(1.3125347,0,0,1.3125347,20.475232,79.38618)" d="M87.2267 184.4327C106.8786 187.3498 141.6931 191.954 169.13971 170.6066 197.3137 148.6936 220.6 170.2234 224.1197 180.1721 224.19731 180.4379 239.11931 231.7435 214.531 267.6501 190.5616 302.65299 85.587909 311.3834 54.253404 264.72209 33.4876 218.0849 53.8354 179.4762 87.2267 184.4327ZM17.5026 89.9773C10.049999 137.1796 52.2772 184.5854 131.9658 165.3457 203.5712 148.0576 215.8075 89.0267 190.0766 50.936906 199.9117 39.853204 142.7729 8.691204 138.2231 17.992505 96.3657 10.306805 66.9453 23.627604 49.7462 37.377107 38.2061 28.2918 8.1166 85.2435 17.5026 89.9773Z" fill="#ffffff"/>
<path transform="matrix(1.3125347,0,0,1.3125347,20.475232,79.38618)" d="M138.2231 17.9926C142.7729 8.691299 154.9832-8.0130009 180.66629 4.4519999 203.86519 15.7114 199.91168 39.8533 190.07659 50.937 173.4483 26.9413 138.2231 17.9926 138.2231 17.9926ZM49.7462 37.3772C38.2061 28.291802 15.307201 25.374 4.442402 47.7913-7.786398 73.0229 8.116602 85.2435 17.502602 89.9773 24.3437 58.2611 49.7462 37.3772 49.7462 37.3772ZM130.311 89.9773C145.2866 106.0374 168.6338 107.5049 175.0094 97.041408 181.0746 87.0873 178.5636 76.1082 167.1774 60.581705 154.5854 43.410905 139.4196 44.494005 131.9659 48.910905 121.4007 55.1718 115.3354 73.9172 130.311 89.9773ZM87.2205 101.7358C77.9955 121.663 56.268297 130.3331 46.949399 122.3775 38.084199 114.809207 37.048799 103.5943 43.029397 85.2927 49.643396 65.0529 64.391498 61.355905 72.850498 63.230104 84.8407 65.8868 96.4455 81.8086 87.2205 101.7358Z"/>
<path transform="matrix(1.3125347,0,0,1.3125347,20.475232,79.38618)" d="M85.8822 88.0312C86.2749 72.181697 74.905 67.4924 68.05521 67.587 61.205507 67.681598 49.536607 70.2323 49.635507 86.748699 49.737806 103.831699 59.748308 108.21559 68.37401 107.709598 75.779 107.2753 85.4895 103.8807 85.8822 88.0312ZM148.4236 89.8515C156.8083 88.0512 165.2227 81.2069 160.7966 64.8394 156.5173 49.0149 144.6803 49.6652 138.1032 51.388704 131.5262 53.112104 121.892398 60.608606 126.465297 75.6651 131.0382 90.721599 141.2255 91.3971 148.4236 89.8515Z" fill="#ffffff"/>
<path transform="matrix(1.3125347,0,0,1.3125347,20.475232,79.38618)" d="M85.9396 119.9835C85.780399 119.5116 86.0339 119.0008 86.5065 118.840999 86.969 118.68459 87.4899 118.9342 87.6517 119.405498 87.7964 119.82849 91.317508 129.7218 103.814807 125.7755 112.5743 123.009799 112.8842 115.424198 112.3821 111.425098 111.935009 109.8735 111.8028 108.783397 111.7983 108.7429 111.7515 108.3063 112.0262 107.922 112.4352 107.7989 112.4541 107.791797 112.467609 107.77689 112.487308 107.770999 112.505809 107.765499 112.523708 107.770198 112.542209 107.76579 112.56231 107.76239 112.57821 107.75029 112.59881 107.74819 112.621608 107.74569 112.642009 107.75489 112.66461 107.75419 113.086818 107.71429 113.48621 107.95579 113.61311 108.37319 113.62482 108.41219 113.92961 109.46729 114.12521 111.07029 115.227619 114.94709 118.480419 121.80659 127.62371 120.925189 140.6513 119.67458 140.03812 109.18578 140.00621 108.74209 139.96701 108.24449 140.33872 107.805789 140.8368 107.771389 141.3341 107.73269 141.76921 108.10468 141.80751 108.60198 141.81742 108.721088 142.53061 119.86038 130.253 122.36118 129.487 122.51728 128.66822 122.639888 127.79741 122.72408 120.35691 123.441188 116.32711 119.59438 114.17201 115.75578 113.690319 120.131488 111.48661 125.24828 104.35861 127.499088 103.52351 127.762889 102.72371 127.96948 101.95681 128.12569 89.6817 130.6255 85.9771 120.097 85.9396 119.9835ZM85.9396 119.9835C85.780399 119.5116 86.0339 119.0008 86.5065 118.840999 86.969 118.68459 87.4899 118.9342 87.6517 119.405498 87.7964 119.82849 91.317508 129.7218 103.814807 125.7755 112.5743 123.009799 112.8842 115.424198 112.3821 111.425098 111.935009 109.8735 111.8028 108.783397 111.7983 108.7429 111.7515 108.3063 112.0262 107.922 112.4352 107.7989 112.4541 107.791797 112.467609 107.77689 112.487308 107.770999 112.505809 107.765499 112.523708 107.770198 112.542209 107.76579 112.56231 107.76239 112.57821 107.75029 112.59881 107.74819 112.621608 107.74569 112.642009 107.75489 112.66461 107.75419 113.086818 107.71429 113.48621 107.95579 113.61311 108.37319 113.62482 108.41219 113.92961 109.46729 114.12521 111.07029 115.227619 114.94709 118.480419 121.80659 127.62371 120.925189 140.6513 119.67458 140.03812 109.18578 140.00621 108.74209 139.96701 108.24449 140.33872 107.805789 140.8368 107.771389 141.3341 107.73269 141.76921 108.10468 141.80751 108.60198 141.81742 108.721088 142.53061 119.86038 130.253 122.36118 129.487 122.51728 128.66822 122.639888 127.79741 122.72408 120.35691 123.441188 116.32711 119.59438 114.17201 115.75578 113.690319 120.131488 111.48661 125.24828 104.35861 127.499088 103.52351 127.762889 102.72371 127.96948 101.95681 128.12569 89.6817 130.6255 85.9771 120.097 85.9396 119.9835Z"/>
<path transform="matrix(1.3125347,0,0,1.3125347,20.475232,79.38618)" d="M59.3559 86.2609C59.2057 72.8271 68.2983 70.8041 73.642 70.7575 75.6963 70.7395 78.2714 71.3153 80.6542 72.7443 83.835498 75.4218 86.4318 80.9054 86.253299 88.1086 86.117099 93.608699 84.48869 97.941898 82.59139 100.42619 80.00739 102.53269 76.833599 103.238399 74.06809 103.39189 67.3406 103.7653 59.5112 100.1555 59.3559 86.2609ZM141.8336 87.2294C139.1477 87.8149 135.925 87.9804 132.89551 86.6498 130.311 84.98431 127.70761 81.06261 126.120807 75.8376 124.0425 68.9948 125.033809 63.1447 127.4178 59.658205 129.3185 57.6603 131.6292 56.427606 133.599 55.900705 138.7227 54.530206 147.9558 54.057306 151.3697 66.9469 154.9007 80.2787 148.3675 85.805 141.8336 87.2294ZM40.438 46.6502C33.4208 41.1256 19.4966 39.3514 12.8901009 52.9827 5.4541008 68.3253 15.1243 75.7563 20.8316 78.634799 26.9985 61.5305 40.438 46.6502 40.438 46.6502ZM181.2253 40.8594C186.6978 33.801504 188.369 19.864602 174.6891 13.359102 159.2919 6.0369026 151.9326 15.905903 149.0964 21.634404 166.205 28.1474 181.2253 40.8594 181.2253 40.8594ZM186.9856 355.8712C191.24829 346.1778 184.633 341.94529 184.342 341.7685 183.8698 341.48429 183.71599 340.87199 183.9982 340.3984 184.2819 339.9248 184.8952 339.7705 185.3693 340.0527 185.45169 340.1017 193.23929 344.9017 189.32599 355.41963 189.0107 355.5849 187.482 355.8491 186.9856 355.8712ZM176.236 355.9273C180.15619 346.2972 173.84789 340.5447 173.78139 340.48533 173.36779 340.11814 172.73648 340.15623 172.36978 340.56935 172.00408 340.98243 172.04119 341.61235 172.45178 341.97953 172.69109 342.1957 177.96959 347.10084 174.16248 355.69194 174.4891 355.7713 175.8058 355.9186 176.236 355.9273ZM83.8445 355.8548C79.579898 346.1566 86.215999 341.94129 86.5011 341.7675 86.9718 341.4823 87.1241 340.86808 86.8409 340.3964 86.555698 339.92469 85.9454 339.76939 85.472698 340.05259 85.39089 340.10148 77.61669 344.8936 81.507999 355.39308 81.8743 355.5227 83.6027 355.8406 83.8445 355.8548ZM96.6854 355.7037C92.844608 347.04173 98.3321 342.0314 98.3888 341.9814 98.8019 341.6152 98.839008 340.98243 98.4728 340.5693 98.1066 340.1552 97.4738 340.1191 97.0607 340.4853 96.9947 340.54469 90.6825 346.30079 94.6112 355.9364 94.9485 355.9555 96.2831 355.8239 96.6854 355.7037ZM227.4625 74.2667C226.97319 74.0104 226.78429 73.4063 227.0401 72.9166 230.5182 66.2706 235.6544 60.8855 237.5705 58.996206 238.0011 59.097707 239.2162 59.580408 239.66159 59.758905 239.59519 59.820405 232.91599 66.002109 228.81249 73.844409 228.63379 74.18571 228.28559 74.38051 227.92528 74.38051 227.7691 74.3804 227.6109 74.3438 227.4625 74.2667ZM242.6828 82.2075C242.1574 82.037097 241.8698 81.472599 242.0402 80.94769 245.34781 70.75969 246.53351 64.08139 246.54471 64.016498 247.05152 64.2887 247.8708 65.04679 248.2467 65.70139 247.75821 68.077198 246.4685 73.78469 243.9426 81.564899 243.80539 81.98779 243.4133 82.2568 242.9914 82.2568 242.8893 82.2568 242.7853 82.2407 242.6828 82.2075ZM32.8091 276.7577C33.312704 276.9846 33.5371 277.5764 33.3107 278.08039 30.2321 284.9206 25.412899 290.61228 23.6119 292.6117 23.1761 292.5358 21.924 292.1507 21.4689 291.9989 21.5315 291.9336 27.8544 285.3307 31.4864 277.25923 31.6446 276.90794 31.9806 276.6928 32.3403 276.6715 32.4963 276.6623 32.6564 276.6895 32.8091 276.7577ZM17.0534 269.87C17.588 270.009 17.9085 270.55549 17.7694 271.0895 15.0707 281.4554 14.2883 288.14393 14.280899 288.2094 13.697299 287.867 12.891699 287.0798 12.476398 286.62113 12.823399 284.2206 13.772899 278.50215 15.833798 270.58613 15.945699 270.1559 16.321198 269.86415 16.742299 269.8391 16.8443 269.833 16.949 269.8429 17.0534 269.87ZM109.4353 94.2683C106.021709 95.23 95.485507 97.1855 98.7366 103.4328 100.1863 106.2185 108.255908 111.5602 112.4988 110.4427 117.7711 109.0541 122.5483 101.355808 122.7986 98.70261 123.2126 94.3155 117.1489 92.0953 109.4353 94.2683Z"/>
</g>
</svg>
